<?xml version="1.0" standalone="no"?>
<!DOCTYPE svg PUBLIC "-//W3C//DTD SVG 20010904//EN"
 "http://www.w3.org/TR/2001/REC-SVG-20010904/DTD/svg10.dtd">
<svg version="1.0" xmlns="http://www.w3.org/2000/svg"
 width="904.000000pt" height="1280.000000pt" viewBox="0 0 904.000000 1280.000000"
 preserveAspectRatio="xMidYMid meet">
<g transform="translate(0.000000,1280.000000) scale(0.100000,-0.100000)"
fill="#000000" stroke="none">
<path d="M4290 12789 c-47 -5 -154 -16 -238 -24 -939 -94 -1847 -497 -2546
-1131 -684 -619 -1153 -1403 -1367 -2281 -64 -262 -87 -415 -129 -858 -13
-137 -13 -314 0 -442 5 -54 14 -156 20 -228 71 -818 359 -1540 888 -2223 195
-253 349 -424 858 -952 489 -508 646 -691 835 -974 269 -403 408 -811 435
-1276 4 -73 11 -128 18 -132 6 -4 661 -8 1456 -8 795 0 1450 4 1456 8 7 4 14
59 18 132 37 644 280 1164 840 1795 54 61 247 265 430 455 389 404 516 540
659 707 668 781 1011 1562 1087 2473 6 74 15 176 21 227 12 119 12 301 -1 433
-45 465 -66 606 -131 870 -146 596 -416 1160 -790 1651 -270 355 -635 705
-1005 967 -431 305 -974 551 -1502 681 -259 64 -409 86 -872 131 -122 12 -318
11 -440 -1z m171 -1099 c18 -10 19 -24 19 -305 0 -270 -1 -295 -17 -303 -10
-5 -76 -12 -148 -16 -509 -24 -1049 -222 -1472 -537 -366 -274 -636 -596 -837
-1000 -181 -362 -257 -654 -294 -1124 l-7 -90 -303 -3 c-277 -2 -303 -1 -309
15 -10 26 14 343 37 483 63 384 166 700 338 1035 125 243 264 450 443 661 100
118 359 367 479 460 557 432 1204 679 1894 723 67 5 129 9 139 10 10 0 27 -4
38 -9z"/>
<path d="M3275 2043 c-88 -20 -158 -73 -198 -148 -31 -57 -30 -173 0 -231 30
-56 78 -103 133 -128 45 -21 48 -21 1310 -21 1262 0 1265 0 1310 21 55 25 103
72 133 128 30 58 31 174 0 231 -28 52 -88 109 -138 132 -38 17 -110 18 -1285
19 -685 1 -1254 0 -1265 -3z"/>
<path d="M3270 1291 c-57 -12 -107 -40 -146 -83 -48 -54 -67 -101 -68 -173 -1
-83 24 -143 83 -198 88 -82 -4 -77 1381 -77 1087 0 1232 2 1279 16 69 20 143
88 168 152 22 57 22 153 0 203 -22 53 -80 113 -135 141 l-47 23 -1240 1 c-682
1 -1256 -1 -1275 -5z"/>
<path d="M3792 540 c-90 -19 -171 -95 -198 -186 -42 -144 32 -278 184 -336 44
-17 97 -18 744 -18 l697 0 58 25 c80 36 114 65 146 123 75 138 21 304 -121
374 l-47 23 -710 2 c-390 0 -729 -3 -753 -7z"/>
</g>
</svg>
